PathFileType	4	(X/Y/Z)	C:\Users\°ÂÌØÂü\Desktop\20210112\bx_n_10_1802-Unnamed.trc
DataRate	CameraRate	NumFrames	NumMarkers	Units	OrigDataRate	OrigDataStartFrame	OrigNumFrames
50.00	50.00	       9	0	mm	50.00	389	       518
Frame#	Time	
		

389	7.760	-671.33990	170.89874	149.21786	-694.87469	86.83063	205.27647	-703.30115	-4.31909	682.25714	-811.77142	289.56271	599.96686				-608.92554	-69.92592	163.65146	-578.55493	263.49100	537.14941	-523.51056	79.51830	532.20642	-663.96472	60.80397	147.98431	-499.17807	17.64537	457.08258	-1013.03308	90.74704	707.78827	-647.90564	-59.32271	168.49660	-509.77493	150.50360	528.97552	-781.81207	59.27310	179.62872	-539.78815	-35.18826	504.47244	-553.33142	-38.95200	537.76263	-676.42029	284.07291	577.13123	-752.28961	219.11244	208.55235	-693.17871	145.31442	204.46310	-882.56396	296.07660	144.75284				-591.23004	26.90686	163.44104	-544.50385	261.93832	510.62357	-588.56708	217.93311	171.88800	-659.24286	293.91473	160.18942	-625.64124	304.70917	157.90063	-553.41791	258.06903	162.97722	-528.03845	304.74155	146.94852	-251.08539	119.22989	1121.36536	-464.05035	274.97659	926.57837	-517.56775	-72.67256	143.01427	-546.66394	-37.59287	162.22446	-786.15814	166.26247	189.71930	-807.91003	232.32764	695.22321	-612.03546	-40.18792	450.26822	-739.40723	-1.83028	211.07494	-875.88751	-78.54328	141.29303	-495.65768	212.88084	471.24075	-792.74738	-82.16694	628.27826	-687.22656	-69.68307	587.28387	
390	7.780	-671.26105	170.84256	149.38382	-695.27203	86.16925	205.42413	-702.15228	-5.95084	686.04291	-811.29218	288.66653	604.82355	-446.33768	-50.29260	918.59821	-609.10144	-70.51244	163.18159	-579.42523	262.91702	538.54602	-522.33289	78.47536	533.75385	-663.74896	60.76645	147.92455	-500.23059	15.56462	457.27069	-1011.31903	90.97583	714.55817	-647.88904	-59.88834	167.90123	-510.53998	149.46983	529.49554	-781.58716	59.16854	179.48798	-540.57416	-36.55173	504.69693	-554.41058	-40.95252	538.32867	-676.43506	283.24954	579.94006	-752.35803	219.16121	208.41104	-693.34595	145.44847	204.29764	-882.57037	296.17642	144.82063				-591.47400	26.99230	163.35748	-545.54028	261.60623	511.64075	-588.30591	217.81712	171.84491	-659.21558	294.14264	160.25751	-625.52618	304.83679	157.97214	-553.54547	258.13284	162.78458	-528.03156	304.52658	146.55516	-252.44771	119.18273	1131.79028	-465.49835	274.83533	935.66193	-517.59741	-72.69997	143.01930	-546.26996	-37.50224	161.97986	-786.13568	166.71315	190.05624	-807.21210	231.93050	701.63000	-613.15906	-41.38089	450.56281	-739.48407	-2.14851	210.60970	-875.79736	-78.79465	141.29492	-496.88141	212.90500	471.31390	-792.67450	-82.94201	633.03540	-687.57825	-70.60278	590.32855	
391	7.800	-671.58105	171.03358	149.23404	-694.87177	85.32872	205.49773	-700.46381	-7.51173	689.66956	-810.65576	288.29593	610.36499	-447.74429	-51.59966	929.14081	-609.26575	-70.67290	163.05019	-579.93970	262.59836	540.55029	-519.30066	82.92079	540.59216	-663.74896	60.76645	147.92455	-502.00919	13.62749	457.00461	-1011.12573	90.33805	722.03210	-648.13574	-60.66565	167.75684	-511.22000	149.18713	529.32056	-781.58521	59.31372	180.16859	-541.98975	-37.74877	505.13727	-555.32800	-42.29575	539.10083	-676.57996	282.06921	582.78436	-752.35522	219.24232	208.48683	-693.48529	145.69460	204.31810	-882.55261	296.23239	144.67671				-591.18335	26.61473	163.52373	-546.33789	260.33200	512.44550	-588.47430	218.08405	171.84753	-659.23230	294.04980	160.01231	-625.58075	304.74939	157.96945	-553.56342	257.89859	163.00862	-528.10187	304.46811	146.86571	-254.35092	118.74432	1143.07251	-466.53622	274.84915	945.36737	-517.90363	-73.58744	142.84613	-546.32953	-37.33972	161.64258	-786.37073	167.06586	190.04979	-806.60950	231.05444	708.63837	-614.29218	-42.59306	451.26498	-739.64050	-2.30624	210.54503	-875.88751	-78.54328	141.29303	-497.66992	211.98354	472.17456	-792.43304	-83.58995	637.51910	-688.35663	-72.28070	593.61633	
392	7.820	-671.56219	170.86482	149.56772	-694.40448	84.65096	205.45981	-699.01221	-8.99503	693.53870	-810.75140	287.82825	616.39587	-448.69662	-52.62620	940.30511	-609.32922	-71.14364	162.41954				-517.96783	82.65827	543.81000	-663.79620	60.64447	148.43517	-503.10168	11.50593	458.19553	-1009.93011	89.98548	730.41296	-648.32501	-61.06317	167.33212	-512.50409	147.75905	530.70123	-781.25775	58.22667	179.21301	-543.62518	-40.17669	506.60800	-556.51691	-44.05738	540.54590	-676.88690	281.16397	586.09705	-752.58405	219.38814	208.44290	-693.85950	145.98734	204.10518	-882.53625	296.02585	144.74304				-591.24341	26.15776	163.64369	-547.41321	259.44028	513.74805	-588.59668	217.76202	171.78790	-659.32159	294.33597	160.10901	-625.44592	304.95831	157.84155	-553.57202	258.02408	162.97556	-528.10126	304.34537	146.71083	-256.82831	118.39706	1155.45422	-467.63669	274.94849	956.13947	-517.93982	-73.64536	142.72331	-546.15436	-37.69878	161.91760	-786.70526	167.45111	189.96101	-806.18890	230.71259	715.61328	-614.99084	-43.40018	451.87286	-740.25482	-2.63001	210.69250	-875.79388	-78.47688	141.16841	-498.93109	211.21533	472.54974	-792.30188	-83.94859	642.39905	-688.70654	-73.01723	596.83575	
393	7.840	-671.38879	170.48422	150.19826	-694.38013	84.21854	205.71223	-697.26483	-10.64009	697.85815	-810.48828	287.07346	622.40991	-450.15430	-52.72080	951.75299	-609.39825	-71.74702	162.18660	-527.53436	70.73876	533.57343				-663.64880	60.32248	149.13153	-504.21820	10.01283	459.19000	-1009.53406	89.36930	739.15198	-648.77460	-61.72688	166.65611	-513.71027	146.95396	530.91052	-781.31696	58.49918	179.84793	-545.00159	-42.10480	507.15106	-558.21936	-45.70407	541.88251	-677.24237	280.64001	590.08759	-752.87158	220.02194	208.85674	-694.10657	146.21077	203.91975	-882.55035	295.97714	144.68227	-711.33209	205.36523	697.10071	-591.27258	25.94536	163.90843	-548.67609	258.16983	514.74396	-588.78839	217.91173	171.58736	-659.41632	294.46915	159.87862	-625.50073	304.98438	158.00897	-554.12909	258.68362	164.51903	-528.00299	304.30740	146.63148	-259.60052	118.41818	1169.58801	-469.31830	274.43390	967.85223	-517.56976	-72.78098	142.90912				-786.81964	167.99416	190.13426	-805.72198	230.16718	723.97479	-616.93085	-44.61467	452.07639	-740.41370	-3.14163	210.90178	-875.77411	-78.55447	141.19188	-500.32687	210.34477	473.34143	-792.52484	-84.76656	648.51355	-689.50562	-74.15745	600.37305	
394	7.860	-671.27875	170.65863	150.56113	-694.17767	84.63265	206.57535	-696.03699	-12.37154	702.13239	-810.23212	285.68045	628.31647	-451.30380	-53.45255	964.28052	-609.80194	-72.33927	161.54022	-528.63800	68.86932	534.16083	-545.78296	-38.54167	162.61609	-663.72864	60.04464	149.63599	-505.50153	8.11379	460.06406	-1008.34473	89.31456	747.98383	-649.16357	-62.20058	166.19331	-514.58588	146.15993	531.86908	-781.32489	58.19774	180.11418	-547.18713	-43.12435	507.75049	-560.14972	-46.98862	542.91949	-677.35571	279.74490	593.57690	-753.31390	220.41986	208.44466	-694.44659	146.13194	204.19255	-882.43433	296.16757	144.73752	-709.48535	205.34250	701.78503	-591.19672	25.36981	164.04683	-550.12408	257.37521	515.54730	-588.65942	218.07945	171.63823	-659.53796	294.70456	159.69058	-625.38873	305.01587	158.01831	-554.20660	258.66690	164.60143	-527.92041	304.46118	146.97287	-262.83997	118.61777	1184.15173	-471.19016	274.37881	980.54883	-517.71222	-72.60329	142.70865				-787.59552	168.37601	190.08792	-805.32477	229.94225	732.09595	-618.64844	-45.77147	452.44482	-740.47137	-3.54372	211.10966	-875.87097	-78.64214	141.18979	-501.60852	209.43399	474.12744	-792.59790	-85.93446	654.73773	-690.14868	-75.40443	604.42596	
395	7.880	-671.52026	170.67815	150.79483	-694.32629	83.73597	207.04811	-694.71759	-14.43870	707.23480	-809.68201	284.92435	634.91046	-452.79419	-53.86042	977.00391	-609.91913	-72.72950	161.40518	-529.86432	67.23395	535.22766				-663.54425	59.90820	150.31659	-507.69931	6.37774	460.81485	-1007.57764	89.01286	757.05157	-649.29614	-62.84400	166.23637	-516.27271	145.34114	532.38379	-781.45166	58.11877	180.17317	-548.78821	-44.68249	509.03195	-561.65424	-48.93578	544.44092	-677.57928	279.46088	597.80505	-753.35712	220.70624	208.55463	-694.38196	146.17096	204.29625	-882.62878	296.10672	144.68527	-707.28900	204.98770	706.65454	-591.48883	25.34086	164.37761	-551.27588	256.41953	517.21729	-588.73810	218.03224	171.48495	-659.60779	294.78790	159.62819	-625.38647	305.18530	157.70454	-554.38367	258.57956	164.76785	-527.94458	304.49655	146.67267	-266.67505	118.49610	1199.78796	-473.04227	273.94498	992.83301	-517.63165	-72.84026	143.21689				-787.90106	168.72945	189.82320	-804.64008	228.92372	740.57239	-620.36078	-47.68511	453.53494	-740.80084	-4.21032	210.80334	-875.79120	-78.61413	141.32553	-502.92783	208.92545	474.38089	-792.23474	-86.80765	660.58533	-691.20581	-76.36833	608.05365	
396	7.900	-672.19153	171.34895	150.43030	-694.76343	83.24474	207.40404	-693.10767	-16.14502	711.62482	-808.94232	284.16245	642.22803	-454.17300	-54.62160	990.50543	-609.95074	-73.14493	161.11076	-530.84070	65.82153	536.31903				-663.54425	59.90820	150.31659	-509.93762	4.47241	461.13382	-1006.10992	88.88055	766.34058	-649.50275	-62.86143	166.07336	-517.10748	144.13316	533.93109	-781.61218	58.31463	180.49582	-550.95239	-46.17590	509.96185	-563.48901	-49.64826	545.29181	-677.73889	278.98129	602.18085	-753.52319	220.29356	207.97165	-694.87964	146.09000	204.75987	-882.45190	296.05518	144.65984	-705.57898	204.43407	711.97406	-591.54364	25.34253	164.85721	-552.74628	254.70361	518.34473	-588.76825	218.27023	171.67203	-659.64301	294.64063	159.47017	-625.43658	305.22394	157.86644	-554.43140	258.49820	164.78587	-527.95288	304.40765	146.69830	-270.91315	118.81129	1216.29346	-475.38513	274.61386	1006.86230	-517.60822	-72.92310	143.10712				-788.09753	169.05251	189.60916	-803.82031	228.09776	749.02161	-622.17975	-49.06859	454.61887	-740.62885	-4.44559	210.97618	-875.95648	-78.79716	141.44162	-504.62329	207.67407	475.82501	-792.24792	-87.30974	666.95123	-692.01428	-77.85672	612.20544	
397	7.920	-672.13599	171.33493	150.56010	-695.30237	81.97996	207.24649	-690.86798	-17.89201	715.73120	-808.25262	282.97321	648.43280	-455.88953	-55.29064	1005.53571	-610.15790	-73.64268	160.95709	-532.35486	63.89223	536.99268				-663.85773	59.58442	150.77194	-511.88699	2.72912	462.34760	-1004.83765	88.73952	775.95740	-649.48975	-63.43968	165.68614	-518.27289	142.37866	533.83173	-781.52173	57.66889	179.66418	-552.84747	-47.57151	510.93304	-565.25610	-51.05146	546.68866				-753.90417	220.37552	208.01443	-694.94421	146.15514	204.59238	-882.71521	296.18518	144.82126	-703.62836	204.50279	717.05804	-591.81702	24.74468	164.52765	-554.30811	253.45648	519.57745	-589.07153	218.48824	172.00995	-659.60779	294.78790	159.62819	-625.25311	305.28079	157.83015	-554.39435	258.20847	164.96240	-527.94897	304.68036	146.89655	-275.17941	118.80325	1233.65149	-477.43143	275.08826	1020.69800	-517.54657	-72.76463	143.10730				-788.20013	169.10864	189.53099	-802.58374	227.96935	758.91974	-623.70587	-49.91590	454.94339	-741.31531	-4.71429	210.15842	-875.83881	-78.68930	141.40500	-505.69467	205.57693	477.06699	-792.12036	-87.64712	673.19202	-692.78021	-78.56909	616.48462	
